<?xml version="1.0" encoding="utf-8"?>
<!-- Generator: Adobe Illustrator 23.0.1, SVG Export Plug-In . SVG Version: 6.00 Build 0)  -->
<svg version="1.1" id="Essentials" xmlns="http://www.w3.org/2000/svg" xmlns:xlink="http://www.w3.org/1999/xlink" x="0px" y="0px"
	 viewBox="0 0 1000 3063" style="enable-background:new 0 0 1000 3063;" xml:space="preserve">
<g>
	<g>
		<path d="M371,321v9h-6v-9H371 M371,318h-6c-1.66,0-3,1.34-3,3v9c0,1.66,1.34,3,3,3h6c1.66,0,3-1.34,3-3v-9
			C374,319.34,372.66,318,371,318L371,318z"/>
	</g>
	<g>
		<path d="M368,295l18.86,16H384v18.99h-17h-15V311h-2.86L368,295 M368,292c-0.69,0-1.38,0.24-1.94,0.71l-18.86,16
			c-0.96,0.81-1.31,2.14-0.88,3.32c0.42,1.14,1.48,1.91,2.68,1.96v15.99c0,1.66,1.34,3,3,3h15h17c1.66,0,3-1.34,3-3V314
			c1.2-0.05,2.26-0.83,2.68-1.96c0.43-1.18,0.08-2.51-0.88-3.32l-18.86-16C369.38,292.24,368.69,292,368,292L368,292z"/>
	</g>
</g>
</svg>
